ffmpeg started on 2025-05-29 at 16:44:09
Report written to "D:\Convert\FFMetrics\reports\psnr_report-6.txt"
Log level: 32
Command line:
ffmpeg -hide_banner -nostdin -i "G:\\\xc0\xed\xe8\xec\xe5\\\xce\xed\xe3\xee\xe8\xed\xe3\xe8\\!_36_\xce\xf1\xe5\xed\xfc_2024\\JamClub\\\xd5\xe0\xed\xe0\xea\xee, \xef\xf0\xe8\xe7\xf0\xe0\xea \xf1 \xe2\xed\xe5\xea\xeb\xe0\xf1\xf1\xed\xfb\xec\xe8 \xe8\xf1\xf2\xee\xf0\xe8\xff\xec\xe8 [\xd2\xc2-2]\\JamClub_Houkago_Shounen_Hanako_kun_Zoku_hen_01_1080p_HEVC.mkv" -i "G:\\\xc0\xed\xe8\xec\xe5\\\xce\xed\xe3\xee\xe8\xed\xe3\xe8\\!_36_\xce\xf1\xe5\xed\xfc_2024\\JamClub\\\xd5\xe0\xed\xe0\xea\xee, \xef\xf0\xe8\xe7\xf0\xe0\xea \xf1 \xe2\xed\xe5\xea\xeb\xe0\xf1\xf1\xed\xfb\xec\xe8 \xe8\xf1\xf2\xee\xf0\xe8\xff\xec\xe8 [\xd2\xc2-2]\\JamClub_Houkago_Shounen_Hanako_kun_Zoku_hen_01_1080p.mp4" -lavfi "[0:v]settb=AVTB,setpts=PTS-STARTPTS,format=pix_fmts=yuv420p10,fps=24000/1001,scale=1920:1080:flags=bicubic[main];[1:v]settb=AVTB,setpts=PTS-STARTPTS,format=pix_fmts=yuv420p,fps=24000/1001,scale=1920:1080:flags=bicubic[ref];[main][ref]psnr=eof_action=endall:stats_file='D\\:/Convert/FFMetrics/logs/psnr_logfile-6.txt'" -f null -
Input #0, matroska,webm, from 'G:\Аниме\Онгоинги\!_36_Осень_2024\JamClub\Ханако, призрак с внеклассными историями [ТВ-2]\JamClub_Houkago_Shounen_Hanako_kun_Zoku_hen_01_1080p_HEVC.mkv':
  Metadata:
    COMPATIBLE_BRANDS: isomiso2avc1mp41
    MAJOR_BRAND     : isom
    MINOR_VERSION   : 512
    ENCODER         : Lavf61.7.100
  Duration: 00:10:22.87, start: -0.001000, bitrate: 1484 kb/s
  Stream #0:0: Video: hevc (Main 10), yuv420p10le(tv, bt709, progressive), 1920x1080 [SAR 1:1 DAR 16:9], 23.98 fps, 23.98 tbr, 1k tbn (default)
      Metadata:
        HANDLER_NAME    : VideoHandler
        VENDOR_ID       : [0][0][0][0]
        ENCODER         : Lavc61.19.100 libx265
        BPS             : 1288092
        DURATION        : 00:10:22.788708333
        NUMBER_OF_FRAMES: 14932
        NUMBER_OF_BYTES : 100276081
        _STATISTICS_WRITING_APP: mkvpropedit v66.0.0 ('Josie') 64-bit
        _STATISTICS_WRITING_DATE_UTC: 2025-05-29 11:45:03
        _STATISTICS_TAGS: BPS DURATION NUMBER_OF_FRAMES NUMBER_OF_BYTES
  Stream #0:1(eng): Audio: aac (LC), 48000 Hz, stereo, fltp (default)
      Metadata:
        HANDLER_NAME    : SoundHandler
        VENDOR_ID       : [0][0][0][0]
        ENCODER         : Lavc61.19.100 aac
        BPS             : 192912
        DURATION        : 00:10:22.829000000
        NUMBER_OF_FRAMES: 29196
        NUMBER_OF_BYTES : 15018956
        _STATISTICS_WRITING_APP: mkvpropedit v66.0.0 ('Josie') 64-bit
        _STATISTICS_WRITING_DATE_UTC: 2025-05-29 11:45:03
        _STATISTICS_TAGS: BPS DURATION NUMBER_OF_FRAMES NUMBER_OF_BYTES
Input #1, mov,mp4,m4a,3gp,3g2,mj2, from 'G:\Аниме\Онгоинги\!_36_Осень_2024\JamClub\Ханако, призрак с внеклассными историями [ТВ-2]\JamClub_Houkago_Shounen_Hanako_kun_Zoku_hen_01_1080p.mp4':
  Metadata:
    major_brand     : isom
    minor_version   : 512
    compatible_brands: isomiso2avc1mp41
    encoder         : Lavf60.16.100
  Duration: 00:10:22.85, start: 0.000000, bitrate: 4559 kb/s
  Stream #1:0[0x1](und): Video: h264 (High) (avc1 / 0x31637661), yuv420p(progressive), 1920x1080 [SAR 1:1 DAR 16:9], 4362 kb/s, 23.98 fps, 23.98 tbr, 90k tbn (default)
      Metadata:
        handler_name    : VideoHandler
        vendor_id       : [0][0][0][0]
  Stream #1:1[0x2](eng): Audio: aac (LC) (mp4a / 0x6134706D), 48000 Hz, stereo, fltp, 191 kb/s (default)
      Metadata:
        handler_name    : SoundHandler
        vendor_id       : [0][0][0][0]
Stream mapping:
  Stream #0:0 (hevc) -> settb:default
  Stream #1:0 (h264) -> settb:default
  psnr:default -> Stream #0:0 (wrapped_avframe)
  Stream #0:1 -> #0:1 (aac (native) -> pcm_s16le (native))
Output #0, null, to 'pipe:':
  Metadata:
    COMPATIBLE_BRANDS: isomiso2avc1mp41
    MAJOR_BRAND     : isom
    MINOR_VERSION   : 512
    encoder         : Lavf61.7.100
  Stream #0:0: Video: wrapped_avframe, yuv420p10le(tv, bt709, progressive), 1920x1080 [SAR 1:1 DAR 16:9], q=2-31, 200 kb/s, 23.98 fps, 23.98 tbn
      Metadata:
        encoder         : Lavc61.19.100 wrapped_avframe
  Stream #0:1(eng): Audio: pcm_s16le, 48000 Hz, stereo, s16, 1536 kb/s (default)
      Metadata:
        HANDLER_NAME    : SoundHandler
        VENDOR_ID       : [0][0][0][0]
        _STATISTICS_TAGS: BPS DURATION NUMBER_OF_FRAMES NUMBER_OF_BYTES
        BPS             : 192912
        DURATION        : 00:10:22.829000000
        NUMBER_OF_FRAMES: 29196
        NUMBER_OF_BYTES : 15018956
        _STATISTICS_WRITING_APP: mkvpropedit v66.0.0 ('Josie') 64-bit
        _STATISTICS_WRITING_DATE_UTC: 2025-05-29 11:45:03
        encoder         : Lavc61.19.100 pcm_s16le
frame=  116 fps=0.0 q=-0.0 size=N/A time=00:00:04.83 bitrate=N/A speed=9.18x    frame=  281 fps=270 q=-0.0 size=N/A time=00:00:11.72 bitrate=N/A speed=11.3x    frame=  485 fps=311 q=-0.0 size=N/A time=00:00:20.22 bitrate=N/A speed=  13x    frame=  724 fps=350 q=-0.0 size=N/A time=00:00:30.19 bitrate=N/A speed=14.6x    frame=  980 fps=378 q=-0.0 size=N/A time=00:00:40.87 bitrate=N/A speed=15.8x    frame= 1198 fps=387 q=-0.0 size=N/A time=00:00:49.96 bitrate=N/A speed=16.1x    frame= 1442 fps=398 q=-0.0 size=N/A time=00:01:00.14 bitrate=N/A speed=16.6x    frame= 1688 fps=409 q=-0.0 size=N/A time=00:01:10.40 bitrate=N/A speed=17.1x    frame= 1933 fps=416 q=-0.0 size=N/A time=00:01:20.62 bitrate=N/A speed=17.3x    frame= 2141 fps=415 q=-0.0 size=N/A time=00:01:29.29 bitrate=N/A speed=17.3x    frame= 2398 fps=422 q=-0.0 size=N/A time=00:01:40.01 bitrate=N/A speed=17.6x    frame= 2633 fps=426 q=-0.0 size=N/A time=00:01:49.81 bitrate=N/A speed=17.7x    frame= 2863 fps=427 q=-0.0 size=N/A time=00:01:59.41 bitrate=N/A speed=17.8x    frame= 3090 fps=428 q=-0.0 size=N/A time=00:02:08.87 bitrate=N/A speed=17.9x    frame= 3306 fps=427 q=-0.0 size=N/A time=00:02:17.88 bitrate=N/A speed=17.8x    frame= 3551 fps=430 q=-0.0 size=N/A time=00:02:28.10 bitrate=N/A speed=17.9x    frame= 3807 fps=434 q=-0.0 size=N/A time=00:02:38.78 bitrate=N/A speed=18.1x    frame= 4051 fps=436 q=-0.0 size=N/A time=00:02:48.96 bitrate=N/A speed=18.2x    frame= 4298 fps=438 q=-0.0 size=N/A time=00:02:59.26 bitrate=N/A speed=18.3x    frame= 4549 fps=440 q=-0.0 size=N/A time=00:03:09.73 bitrate=N/A speed=18.4x    frame= 4823 fps=444 q=-0.0 size=N/A time=00:03:21.15 bitrate=N/A speed=18.5x    frame= 5082 fps=447 q=-0.0 size=N/A time=00:03:31.96 bitrate=N/A speed=18.6x    frame= 5319 fps=448 q=-0.0 size=N/A time=00:03:41.84 bitrate=N/A speed=18.7x    frame= 5591 fps=451 q=-0.0 size=N/A time=00:03:53.19 bitrate=N/A speed=18.8x    frame= 5823 fps=451 q=-0.0 size=N/A time=00:04:02.86 bitrate=N/A speed=18.8x    frame= 6060 fps=451 q=-0.0 size=N/A time=00:04:12.75 bitrate=N/A speed=18.8x    frame= 6288 fps=451 q=-0.0 size=N/A time=00:04:22.26 bitrate=N/A speed=18.8x    frame= 6567 fps=454 q=-0.0 size=N/A time=00:04:33.89 bitrate=N/A speed=18.9x    frame= 6789 fps=453 q=-0.0 size=N/A time=00:04:43.15 bitrate=N/A speed=18.9x    frame= 7040 fps=454 q=-0.0 size=N/A time=00:04:53.62 bitrate=N/A speed=  19x    frame= 7262 fps=454 q=-0.0 size=N/A time=00:05:02.88 bitrate=N/A speed=18.9x    frame= 7471 fps=452 q=-0.0 size=N/A time=00:05:11.60 bitrate=N/A speed=18.9x    frame= 7738 fps=454 q=-0.0 size=N/A time=00:05:22.73 bitrate=N/A speed=18.9x    frame= 8005 fps=456 q=-0.0 size=N/A time=00:05:33.87 bitrate=N/A speed=  19x    frame= 8258 fps=457 q=-0.0 size=N/A time=00:05:44.42 bitrate=N/A speed=19.1x    frame= 8501 fps=457 q=-0.0 size=N/A time=00:05:54.56 bitrate=N/A speed=19.1x    frame= 8773 fps=459 q=-0.0 size=N/A time=00:06:05.90 bitrate=N/A speed=19.2x    frame= 9026 fps=460 q=-0.0 size=N/A time=00:06:16.45 bitrate=N/A speed=19.2x    frame= 9250 fps=459 q=-0.0 size=N/A time=00:06:25.80 bitrate=N/A speed=19.2x    frame= 9472 fps=459 q=-0.0 size=N/A time=00:06:35.06 bitrate=N/A speed=19.1x    frame= 9723 fps=459 q=-0.0 size=N/A time=00:06:45.53 bitrate=N/A speed=19.2x    frame= 9968 fps=460 q=-0.0 size=N/A time=00:06:55.74 bitrate=N/A speed=19.2x    frame=10221 fps=461 q=-0.0 size=N/A time=00:07:06.30 bitrate=N/A speed=19.2x    frame=10451 fps=460 q=-0.0 size=N/A time=00:07:15.89 bitrate=N/A speed=19.2x    frame=10718 fps=461 q=-0.0 size=N/A time=00:07:27.02 bitrate=N/A speed=19.2x    frame=10971 fps=462 q=-0.0 size=N/A time=00:07:37.58 bitrate=N/A speed=19.3x    frame=11237 fps=463 q=-0.0 size=N/A time=00:07:48.67 bitrate=N/A speed=19.3x    frame=11485 fps=463 q=-0.0 size=N/A time=00:07:59.02 bitrate=N/A speed=19.3x    frame=11742 fps=464 q=-0.0 size=N/A time=00:08:09.73 bitrate=N/A speed=19.4x    frame=11990 fps=465 q=-0.0 size=N/A time=00:08:20.08 bitrate=N/A speed=19.4x    frame=12239 fps=465 q=-0.0 size=N/A time=00:08:30.46 bitrate=N/A speed=19.4x    frame=12475 fps=465 q=-0.0 size=N/A time=00:08:40.31 bitrate=N/A speed=19.4x    frame=12735 fps=466 q=-0.0 size=N/A time=00:08:51.15 bitrate=N/A speed=19.4x    frame=12903 fps=463 q=-0.0 size=N/A time=00:08:58.16 bitrate=N/A speed=19.3x    frame=13076 fps=461 q=-0.0 size=N/A time=00:09:05.37 bitrate=N/A speed=19.2x    frame=13271 fps=459 q=-0.0 size=N/A time=00:09:13.51 bitrate=N/A speed=19.2x    frame=13431 fps=457 q=-0.0 size=N/A time=00:09:20.18 bitrate=N/A speed=  19x    frame=13638 fps=456 q=-0.0 size=N/A time=00:09:28.81 bitrate=N/A speed=  19x    frame=13854 fps=455 q=-0.0 size=N/A time=00:09:37.82 bitrate=N/A speed=  19x    frame=14039 fps=453 q=-0.0 size=N/A time=00:09:45.54 bitrate=N/A speed=18.9x    frame=14223 fps=452 q=-0.0 size=N/A time=00:09:53.21 bitrate=N/A speed=18.8x    frame=14409 fps=450 q=-0.0 size=N/A time=00:10:00.97 bitrate=N/A speed=18.8x    frame=14593 fps=449 q=-0.0 size=N/A time=00:10:08.64 bitrate=N/A speed=18.7x    frame=14822 fps=449 q=-0.0 size=N/A time=00:10:18.20 bitrate=N/A speed=18.7x    [Parsed_psnr_10 @ 000001f29bd2ea00] PSNR y:46.992957 u:49.048420 v:48.787479 average:47.544448 min:37.146015 max:inf
[out#0/null @ 000001f290364b40] video:6416KiB audio:116784KiB subtitle:0KiB other streams:0KiB global headers:0KiB muxing overhead: unknown
frame=14932 fps=449 q=-0.0 Lsize=N/A time=00:10:22.78 bitrate=N/A speed=18.7x    
